<?xml version="1.0" encoding="UTF-8"?>
<!DOCTYPE svg PUBLIC "-//W3C//DTD SVG 1.1//EN" "http://www.w3.org/Graphics/SVG/1.1/DTD/svg11.dtd">
<!-- Creator: CorelDRAW 2019 (64-Bit) -->
<svg xmlns="http://www.w3.org/2000/svg" xml:space="preserve" width="3.51281in" height="2.12248in" version="1.1" style="shape-rendering:geometricPrecision; text-rendering:geometricPrecision; image-rendering:optimizeQuality; fill-rule:evenodd; clip-rule:evenodd" viewBox="0 0 3512.81 2122.48" xmlns:xlink="http://www.w3.org/1999/xlink" xmlns:xodm="http://www.corel.com/coreldraw/odm/2003">
 <defs>
  <style type="text/css">
   <![CDATA[
    .str0 {stroke:black;stroke-width:6.94;stroke-miterlimit:2.61313}
    .fil1 {fill:none}
    .fil2 {fill:black}
    .fil0 {fill:#666666}
    .fil3 {fill:black;fill-rule:nonzero}
    .fil4 {fill:#4D4D4D;fill-rule:nonzero}
   ]]>
  </style>
   <clipPath id="id0">
    <path d="M1757.89 928.37l3.78 6.64c73.2,127.11 273.79,282.31 473.37,282.31 328.43,0 568.63,-292.48 568.63,-607.85 0,-348.04 -300.65,-609.48 -568.63,-609.48l-2.98 0.02 0 22.85c-2.46,0 -4.83,0.11 -7.25,0.15 3.39,-0.07 6.78,-0.15 10.23,-0.15 318.63,0 380.72,285.95 380.72,586.6 0,392.16 -99.67,584.97 -380.72,584.97 -281.05,0 -380.72,-192.81 -380.72,-584.97 0,-6.32 0.04,-12.63 0.1,-18.93 -0.72,8.61 -1.54,16.2 -2.52,22.51 -16.83,107.52 -24.32,191.86 -94.01,315.32z"/>
   </clipPath>
 </defs>
 <g id="Layer_x0020_1">
  <metadata id="CorelCorpID_0Corel-Layer"/>
  <path class="fil0" d="M1757.89 928.37l3.78 6.64c73.2,127.11 273.79,282.31 473.37,282.31 328.43,0 568.63,-292.48 568.63,-607.85 0,-348.04 -300.65,-609.48 -568.63,-609.48l-2.98 0.02 0 22.85c-2.46,0 -4.83,0.11 -7.25,0.15 3.39,-0.07 6.78,-0.15 10.23,-0.15 318.63,0 380.72,285.95 380.72,586.6 0,392.16 -99.67,584.97 -380.72,584.97 -281.05,0 -380.72,-192.81 -380.72,-584.97 0,-6.32 0.04,-12.63 0.1,-18.93 -0.72,8.61 -1.54,16.2 -2.52,22.51 -16.83,107.52 -24.32,191.86 -94.01,315.32z"/>
  <g style="clip-path:url(#id0)">
   <g id="_2637625908864">
    <ellipse class="fil1 str0" cx="539" cy="-11.82" rx="108.59" ry="91.15"/>
   </g>
  </g>
  <path class="fil1" d="M1757.89 928.37l3.78 6.64c73.2,127.11 273.79,282.31 473.37,282.31 328.43,0 568.63,-292.48 568.63,-607.85 0,-348.04 -300.65,-609.48 -568.63,-609.48l-2.98 0.02 0 22.85c-2.46,0 -4.83,0.11 -7.25,0.15 3.39,-0.07 6.78,-0.15 10.23,-0.15 318.63,0 380.72,285.95 380.72,586.6 0,392.16 -99.67,584.97 -380.72,584.97 -281.05,0 -380.72,-192.81 -380.72,-584.97 0,-6.32 0.04,-12.63 0.1,-18.93 -0.72,8.61 -1.54,16.2 -2.52,22.51 -16.83,107.52 -24.32,191.86 -94.01,315.32z"/>
  <path class="fil2" d="M2232.07 0l0 22.87c-399.45,0.44 -363.05,480.79 -380.16,590.18 -17.13,109.44 -24.59,194.86 -97.8,321.96 -73.2,127.11 -273.79,282.31 -473.37,282.31 -328.43,0 -568.63,-292.48 -568.63,-607.85 0,-348.04 300.65,-609.48 568.63,-609.48 187.62,0 372.44,111.3 478.26,285.3 109.97,-173.82 298.41,-285.07 473.08,-285.3zm-1332.06 609.48c0,-300.65 62.08,-586.6 380.72,-586.6 318.63,0 380.72,285.95 380.72,586.6 0,392.16 -99.67,584.97 -380.72,584.97 -281.04,0 -380.72,-192.81 -380.72,-584.97z"/>
  <path class="fil3" d="M297.41 1985.53l99.36 0 0 -369.24 -99.36 0 0 38.27c-18.8,-24.84 -58.41,-46.32 -112.11,-46.32 -116.81,0 -185.29,86.6 -185.29,192.68 0,106.07 68.48,192.67 185.29,192.67 52.37,0 96.67,-24.17 112.11,-44.98l0 36.93zm4.03 -184.62c0,64.45 -38.94,104.06 -101.37,104.06 -61.76,0 -101.37,-45.65 -101.37,-104.06 0,-60.42 37.59,-104.73 101.37,-104.73 62.43,0 101.37,43.64 101.37,104.73z"/>
  <polygon id="1" class="fil3" points="436.65,1985.53 537.35,1985.53 537.35,1477.99 436.65,1477.99 "/>
  <path id="2" class="fil3" d="M672.56 1616.29l-99.36 0 0 488.07 99.36 0 0 -157.09c18.8,24.84 58.41,46.32 112.11,46.32 116.81,0 185.29,-86.6 185.29,-192.67 0,-106.07 -68.48,-192.68 -185.29,-192.68 -52.37,0 -96.67,24.17 -112.11,44.98l0 -36.93zm-4.03 184.62c0,-64.45 38.94,-104.06 101.37,-104.06 61.76,0 101.37,45.65 101.37,104.06 0,60.42 -37.59,104.73 -101.37,104.73 -62.44,0 -101.37,-43.64 -101.37,-104.73z"/>
  <path id="3" class="fil3" d="M1191.11 1609.57c-32.9,0 -73.85,14.77 -98.69,39.61l0 -171.86 -100.03 0 0 508.2 100.03 0 0 -195.36c-2.01,-80.56 42.96,-97.34 70.49,-97.34 38.94,0 71.83,17.45 71.83,74.52l0 218.18 102.04 0 0 -218.18c0,-96 -38.94,-157.77 -145.68,-157.77z"/>
  <path id="4" class="fil3" d="M1654.61 1985.53l99.36 0 0 -369.24 -99.36 0 0 38.27c-18.8,-24.84 -58.41,-46.32 -112.11,-46.32 -116.81,0 -185.29,86.6 -185.29,192.68 0,106.07 68.48,192.67 185.29,192.67 52.37,0 96.67,-24.17 112.11,-44.98l0 36.93zm4.03 -184.62c0,64.45 -38.94,104.06 -101.37,104.06 -61.76,0 -101.37,-45.65 -101.37,-104.06 0,-60.42 37.59,-104.73 101.37,-104.73 62.43,0 101.37,43.64 101.37,104.73z"/>
  <path class="fil4" d="M2192.67 1996.94l79.89 -59.75c-22.82,-24.84 -50.35,-51.69 -74.52,-75.86 29.54,-37.6 45.65,-62.44 66.46,-100.03l-91.97 -44.31c0,1.34 -14.1,34.24 -43.64,75.19l-54.27 -53.71c32.11,-18.8 58.3,-38.26 73.06,-65.79 10.07,-18.8 14.77,-39.61 14.77,-58.41 0,-18.13 -4.03,-34.91 -12.76,-51.69 -16.78,-34.91 -49.68,-61.76 -87.94,-71.83 -10.74,-2.69 -22.15,-4.03 -34.91,-4.03 -27.53,0 -56.39,7.39 -79.22,22.15 -31.55,20.81 -53.04,54.38 -59.08,91.3 -4.7,41.62 8.73,83.25 37.6,118.83 -10.07,7.39 -26.19,18.13 -34.91,24.84 -41.62,34.24 -65.79,73.85 -59.75,128.23 9.4,73.18 77.2,124.87 157.77,121.51 51.69,-2.01 77.87,-8.73 138.96,-59.08l64.45 62.44zm-206.1 -386.69c4.03,-26.19 22.16,-37.59 39.61,-37.59 18.8,0 38.27,12.75 37.59,32.89 0,30.88 -26.85,52.37 -53.04,67.13 -14.77,-16.78 -26.85,-40.28 -24.17,-62.43zm-4.7 177.91l81.9 81.23c-16.11,14.1 -40.28,34.24 -78.55,32.89 -27.52,-1.34 -49.01,-19.47 -51.02,-41.62 -4.03,-31.55 14.77,-49.68 20.14,-54.38 8.06,-6.04 16.78,-12.08 27.53,-18.13z"/>
  <path class="fil3" d="M2470.34 1522.97c0,-29.54 -25.51,-53.71 -55.72,-53.71 -30.21,0 -56.39,24.17 -56.39,53.71 0,30.21 26.18,54.38 56.39,54.38 30.21,0 55.72,-24.17 55.72,-54.38zm-4.7 93.99l-100.7 0 0 365.21c0,23.5 0,55.05 -46.99,55.05 -12.76,0 -26.18,-2.69 -37.59,-6.71l-5.37 85.26c16.11,4.03 30.88,6.71 44.31,6.71 91.97,0 146.35,-34.24 146.35,-140.31l0 -365.21z"/>
  <path id="1" class="fil3" d="M2785.47 1985.53l99.36 0 0 -369.24 -99.36 0 0 38.27c-18.8,-24.84 -58.41,-46.32 -112.11,-46.32 -116.81,0 -185.29,86.6 -185.29,192.68 0,106.07 68.48,192.67 185.29,192.67 52.37,0 96.67,-24.17 112.11,-44.98l0 36.93zm4.03 -184.62c0,64.45 -38.94,104.06 -101.37,104.06 -61.76,0 -101.37,-45.65 -101.37,-104.06 0,-60.42 37.59,-104.73 101.37,-104.73 62.43,0 101.37,43.64 101.37,104.73z"/>
  <path id="2" class="fil3" d="M3359.74 1609.57c-49.68,0 -91.3,19.47 -118.83,50.35 -25.51,-31.55 -62.44,-50.35 -118.83,-50.35 -30.21,0 -71.83,17.46 -97.35,40.28l0 -33.57 -100.03 0 0 369.24 100.03 0 0.67 -195.36c0,-80.56 40.28,-97.34 71.16,-97.34 37.59,0 71.16,17.45 71.16,74.52l0 218.18 101.37 0 0 -205.43c0.67,-70.49 42.96,-87.28 70.49,-87.28 38.94,0 71.83,17.45 71.83,74.52l0 218.18 101.37 0 0 -218.18c0,-96 -47,-157.77 -153.07,-157.77z"/>
 </g>
</svg>