<svg xmlns="http://www.w3.org/2000/svg" xmlns:xlink="http://www.w3.org/1999/xlink" width="3512.77" height="2122.49" viewBox="0 0 3512.77 2122.49">
  <defs>
    <clipPath id="clip-path">
      <path id="Path_2" data-name="Path 2" d="M1757.89,928.37l3.78,6.64c73.2,127.11,273.79,282.31,473.37,282.31,328.43,0,568.63-292.48,568.63-607.85,0-348.04-300.65-609.48-568.63-609.48l-2.98.02V22.86c-2.46,0-4.83.11-7.25.15,3.39-.07,6.78-.15,10.23-.15,318.63,0,380.72,285.95,380.72,586.6,0,392.16-99.67,584.97-380.72,584.97s-380.72-192.81-380.72-584.97q0-9.48.1-18.93c-.72,8.61-1.54,16.2-2.52,22.51-16.83,107.52-24.32,191.86-94.01,315.32Z" clip-rule="evenodd"/>
    </clipPath>
  </defs>
  <g id="Layer_x0020_1" transform="translate(-0.01 0.01)">
    <path id="Path_1" data-name="Path 1" d="M1757.89,928.37l3.78,6.64c73.2,127.11,273.79,282.31,473.37,282.31,328.43,0,568.63-292.48,568.63-607.85,0-348.04-300.65-609.48-568.63-609.48l-2.98.02V22.86c-2.46,0-4.83.11-7.25.15,3.39-.07,6.78-.15,10.23-.15,318.63,0,380.72,285.95,380.72,586.6,0,392.16-99.67,584.97-380.72,584.97s-380.72-192.81-380.72-584.97q0-9.48.1-18.93c-.72,8.61-1.54,16.2-2.52,22.51-16.83,107.52-24.32,191.86-94.01,315.32Z" fill="#666" fill-rule="evenodd"/>
    <g id="Group_1" data-name="Group 1" clip-path="url(#clip-path)">
      <g id="_2637625908864">
        <ellipse id="Ellipse_1" data-name="Ellipse 1" cx="108.59" cy="91.15" rx="108.59" ry="91.15" transform="translate(430.41 -102.97)" fill="none" stroke="#000" stroke-miterlimit="2.613" stroke-width="6.94"/>
      </g>
    </g>
    <path id="Path_3" data-name="Path 3" d="M1757.89,928.37l3.78,6.64c73.2,127.11,273.79,282.31,473.37,282.31,328.43,0,568.63-292.48,568.63-607.85,0-348.04-300.65-609.48-568.63-609.48l-2.98.02V22.86c-2.46,0-4.83.11-7.25.15,3.39-.07,6.78-.15,10.23-.15,318.63,0,380.72,285.95,380.72,586.6,0,392.16-99.67,584.97-380.72,584.97s-380.72-192.81-380.72-584.97q0-9.48.1-18.93c-.72,8.61-1.54,16.2-2.52,22.51-16.83,107.52-24.32,191.86-94.01,315.32Z" fill="none" fill-rule="evenodd"/>
    <path id="Path_4" data-name="Path 4" d="M2232.07,0V22.87c-399.45.44-363.05,480.79-380.16,590.18-17.13,109.44-24.59,194.86-97.8,321.96s-273.79,282.31-473.37,282.31c-328.43,0-568.63-292.48-568.63-607.85,0-348.04,300.65-609.48,568.63-609.48,187.62,0,372.44,111.3,478.26,285.3C1868.97,111.47,2057.41.22,2232.08-.01ZM900.01,609.48c0-300.65,62.08-586.6,380.72-586.6s380.72,285.95,380.72,586.6c0,392.16-99.67,584.97-380.72,584.97S900.01,1001.64,900.01,609.48Z" fill="#fff" fill-rule="evenodd"/>
    <path id="Path_5" data-name="Path 5" d="M297.41,1985.53h99.36V1616.29H297.41v38.27c-18.8-24.84-58.41-46.32-112.11-46.32C68.49,1608.24.01,1694.84.01,1800.92s68.48,192.67,185.29,192.67c52.37,0,96.67-24.17,112.11-44.98v36.93Zm4.03-184.62c0,64.45-38.94,104.06-101.37,104.06-61.76,0-101.37-45.65-101.37-104.06,0-60.42,37.59-104.73,101.37-104.73,62.43,0,101.37,43.64,101.37,104.73Z" fill="#fff"/>
    <path id="_1" data-name="1" d="M436.65,1985.53h100.7V1477.99H436.65Z" fill="#fff"/>
    <path id="_2" data-name="2" d="M672.56,1616.29H573.2v488.07h99.36V1947.27c18.8,24.84,58.41,46.32,112.11,46.32,116.81,0,185.29-86.6,185.29-192.67s-68.48-192.68-185.29-192.68c-52.37,0-96.67,24.17-112.11,44.98v-36.93Zm-4.03,184.62c0-64.45,38.94-104.06,101.37-104.06,61.76,0,101.37,45.65,101.37,104.06,0,60.42-37.59,104.73-101.37,104.73-62.44,0-101.37-43.64-101.37-104.73Z" fill="#fff"/>
    <path id="_3" data-name="3" d="M1191.11,1609.57c-32.9,0-73.85,14.77-98.69,39.61V1477.32H992.39v508.2h100.03V1790.16c-2.01-80.56,42.96-97.34,70.49-97.34,38.94,0,71.83,17.45,71.83,74.52v218.18h102.04V1767.34c0-96-38.94-157.77-145.68-157.77Z" fill="#fff"/>
    <path id="_4" data-name="4" d="M1654.61,1985.53h99.36V1616.29h-99.36v38.27c-18.8-24.84-58.41-46.32-112.11-46.32-116.81,0-185.29,86.6-185.29,192.68s68.48,192.67,185.29,192.67c52.37,0,96.67-24.17,112.11-44.98v36.93Zm4.03-184.62c0,64.45-38.94,104.06-101.37,104.06-61.76,0-101.37-45.65-101.37-104.06,0-60.42,37.59-104.73,101.37-104.73,62.43,0,101.37,43.64,101.37,104.73Z" fill="#fff"/>
    <path id="Path_6" data-name="Path 6" d="M2192.67,1996.94l79.89-59.75c-22.82-24.84-50.35-51.69-74.52-75.86,29.54-37.6,45.65-62.44,66.46-100.03l-91.97-44.31c0,1.34-14.1,34.24-43.64,75.19l-54.27-53.71c32.11-18.8,58.3-38.26,73.06-65.79a125.653,125.653,0,0,0,14.77-58.41,109.022,109.022,0,0,0-12.76-51.69c-16.78-34.91-49.68-61.76-87.94-71.83a142.12,142.12,0,0,0-34.91-4.03c-27.53,0-56.39,7.39-79.22,22.15a136.32,136.32,0,0,0-59.08,91.3c-4.7,41.62,8.73,83.25,37.6,118.83-10.07,7.39-26.19,18.13-34.91,24.84-41.62,34.24-65.79,73.85-59.75,128.23,9.4,73.18,77.2,124.87,157.77,121.51,51.69-2.01,77.87-8.73,138.96-59.08l64.45,62.44Zm-206.1-386.69c4.03-26.19,22.16-37.59,39.61-37.59,18.8,0,38.27,12.75,37.59,32.89,0,30.88-26.85,52.37-53.04,67.13-14.77-16.78-26.85-40.28-24.17-62.43Zm-4.7,177.91,81.9,81.23c-16.11,14.1-40.28,34.24-78.55,32.89-27.52-1.34-49.01-19.47-51.02-41.62-4.03-31.55,14.77-49.68,20.14-54.38a245.839,245.839,0,0,1,27.53-18.13Z" fill="#4d4d4d"/>
    <path id="Path_7" data-name="Path 7" d="M2470.34,1522.97c0-29.54-25.51-53.71-55.72-53.71s-56.39,24.17-56.39,53.71c0,30.21,26.18,54.38,56.39,54.38S2470.34,1553.18,2470.34,1522.97Zm-4.7,93.99h-100.7v365.21c0,23.5,0,55.05-46.99,55.05a116.634,116.634,0,0,1-37.59-6.71l-5.37,85.26c16.11,4.03,30.88,6.71,44.31,6.71,91.97,0,146.35-34.24,146.35-140.31V1616.96Z" fill="#fff"/>
    <path id="_1-2" data-name="1" d="M2785.47,1985.53h99.36V1616.29h-99.36v38.27c-18.8-24.84-58.41-46.32-112.11-46.32-116.81,0-185.29,86.6-185.29,192.68s68.48,192.67,185.29,192.67c52.37,0,96.67-24.17,112.11-44.98v36.93Zm4.03-184.62c0,64.45-38.94,104.06-101.37,104.06-61.76,0-101.37-45.65-101.37-104.06,0-60.42,37.59-104.73,101.37-104.73,62.43,0,101.37,43.64,101.37,104.73Z" fill="#fff"/>
    <path id="_2-2" data-name="2" d="M3359.74,1609.57c-49.68,0-91.3,19.47-118.83,50.35-25.51-31.55-62.44-50.35-118.83-50.35-30.21,0-71.83,17.46-97.35,40.28v-33.57H2924.7v369.24h100.03l.67-195.36c0-80.56,40.28-97.34,71.16-97.34,37.59,0,71.16,17.45,71.16,74.52v218.18h101.37V1780.09c.67-70.49,42.96-87.28,70.49-87.28,38.94,0,71.83,17.45,71.83,74.52v218.18h101.37V1767.33c0-96-47-157.77-153.07-157.77Z" fill="#fff"/>
  </g>
</svg>
